<?xml version="1.0" encoding="iso-8859-1"?>
<!-- Generator: Adobe Illustrator 19.0.0, SVG Export Plug-In . SVG Version: 6.00 Build 0)  -->
<svg version="1.1" id="Capa_1" xmlns="http://www.w3.org/2000/svg" xmlns:xlink="http://www.w3.org/1999/xlink" x="0px" y="0px"
	 viewBox="0 0 512 512" style="enable-background:new 0 0 512 512;" xml:space="preserve">
<circle style="fill:#FFBC05;" cx="256" cy="335.448" r="176.552"/>
<path style="fill:#E38100;" d="M103.892,424.757c49.32,84.021,157.414,112.163,241.434,62.844S457.49,330.187,408.17,246.166
	c-1.165-1.995-2.375-3.955-3.619-5.906C331.026,337.302,223.709,403.156,103.892,424.757z"/>
<path style="fill:#2B2733;" d="M167.724,247.172L167.724,247.172c14.627,0,26.483,11.855,26.483,26.483v26.483
	c0,9.754,7.901,17.655,17.655,17.655l0,0c9.754,0,17.655-7.901,17.655-17.655v-26.483c0-14.627,11.855-26.483,26.483-26.483l0,0
	c14.627,0,26.483,11.855,26.483,26.483v26.483c0,9.754,7.901,17.655,17.655,17.655l0,0c9.754,0,17.655-7.901,17.655-17.655v-26.483
	c0-14.627,11.855-26.483,26.483-26.483l0,0c14.627,0,26.483,11.855,26.483,26.483v132.414c0,14.627-11.855,26.483-26.483,26.483l0,0
	c-14.627,0-26.483-11.855-26.483-26.483v-26.483c0-9.754-7.901-17.655-17.655-17.655l0,0c-9.754,0-17.655,7.901-17.655,17.655
	v26.483c0,14.627-11.855,26.483-26.483,26.483l0,0c-14.627,0-26.483-11.855-26.483-26.483v-26.483
	c0-9.754-7.901-17.655-17.655-17.655l0,0c-9.754,0-17.655,7.901-17.655,17.655v26.483c0,14.627-11.855,26.483-26.483,26.483l0,0
	c-14.627,0-26.483-11.855-26.483-26.483V273.655C141.241,259.028,153.097,247.172,167.724,247.172z"/>
<path style="fill:#555160;" d="M194.207,61.793l44.138,114.759v97.103c0,9.754,7.901,17.655,17.655,17.655l0,0
	c9.754,0,17.655-7.901,17.655-17.655v-97.103l44.138-114.759H194.207z"/>
<path style="fill:#3B3944;" d="M194.207,61.793l43.379,112.781c21.583-14.769,40.881-32.644,57.256-53.036l22.952-59.745H194.207z"
	/>
<circle style="fill:#FFBC05;" cx="256" cy="61.793" r="61.793"/>
<path style="fill:#E38100;" d="M306.22,25.874c10.028,32.618-8.289,67.196-40.916,77.224c-25.37,7.795-52.877-1.474-68.352-23.04
	c10.028,32.618,44.597,50.935,77.224,40.916s50.935-44.597,40.916-77.224C313.115,37.35,310.122,31.311,306.22,25.874z"/>
<g>
</g>
<g>
</g>
<g>
</g>
<g>
</g>
<g>
</g>
<g>
</g>
<g>
</g>
<g>
</g>
<g>
</g>
<g>
</g>
<g>
</g>
<g>
</g>
<g>
</g>
<g>
</g>
<g>
</g>
</svg>
